<svg xmlns="http://www.w3.org/2000/svg" version="1.1" xmlns:xlink="http://www.w3.org/1999/xlink" xmlns:svgjs="http://svgjs.dev/svgjs" width="1500" height="1500" viewBox="0 0 1500 1500"><rect width="1500" height="1500" fill="#ffffff"></rect><g transform="matrix(0.6666666666666666,0,0,0.6666666666666666,250.4839284729643,426.2623481781377)"><svg viewBox="0 0 381 247" data-background-color="#ffffff" preserveAspectRatio="xMidYMid meet" height="972" width="1500" xmlns="http://www.w3.org/2000/svg" xmlns:xlink="http://www.w3.org/1999/xlink"><g id="tight-bounds" transform="matrix(1,0,0,1,-0.18437674819941208,-0.09999999999999432)"><svg viewBox="0 0 381.3687534963988 247.2" height="247.2" width="381.3687534963988"><g><svg viewBox="0 0 395.52 256.3727182775692" height="247.2" width="381.3687534963988"><g transform="matrix(1,0,0,1,0,190.00460951330604)"><svg viewBox="0 0 395.52 66.36810876426316" height="66.36810876426316" width="395.52"><g id="textblocktransform"><svg viewBox="0 0 395.52 66.36810876426316" height="66.36810876426316" width="395.52" id="textblock"><g><svg viewBox="0 0 395.52 66.36810876426316" height="66.36810876426316" width="395.52"><g transform="matrix(1,0,0,1,0,0)"><svg width="395.52" viewBox="4.25 -35.1 213.03172408405499 35.75" height="66.36810876426316" data-palette-color="#03424c"><path d="M10.9-34.55L10.9-34.55Q13.3-34.55 15.75-34.52 18.2-34.5 20.6-34.45 23-34.4 25.2-34.2L25.2-34.2 24.95-30.8 12-30.8Q10.25-30.8 9.45-30.03 8.65-29.25 8.65-27.5L8.65-27.5 8.65 0 4.25 0 4.25-28.35Q4.25-31.3 6.05-32.93 7.85-34.55 10.9-34.55ZM5.1-15.95L5.1-19.5 23.05-19.5 23.05-15.95 5.1-15.95ZM30.9-35L35.15-35 35.1-6.7Q35.1-5.1 35.97-4.28 36.85-3.45 38.45-3.45L38.45-3.45 40.8-3.45 41.3-0.2Q40.85 0 40.02 0.15 39.2 0.3 38.32 0.38 37.45 0.45 36.85 0.45L36.85 0.45Q34.15 0.45 32.52-1.15 30.9-2.75 30.9-5.75L30.9-5.75 30.9-35ZM56-24.95L56-24.95Q60.2-24.95 62.72-23.7 65.25-22.45 66.34-19.63 67.45-16.8 67.45-12.15L67.45-12.15Q67.45-7.5 66.34-4.67 65.25-1.85 62.72-0.6 60.2 0.65 56 0.65L56 0.65Q51.84 0.65 49.32-0.6 46.8-1.85 45.67-4.67 44.55-7.5 44.55-12.15L44.55-12.15Q44.55-16.8 45.67-19.63 46.8-22.45 49.32-23.7 51.84-24.95 56-24.95ZM56-21.35L56-21.35Q53.34-21.35 51.82-20.53 50.3-19.7 49.65-17.7 49-15.7 49-12.15L49-12.15Q49-8.6 49.65-6.6 50.3-4.6 51.82-3.78 53.34-2.95 56-2.95L56-2.95Q58.65-2.95 60.2-3.78 61.75-4.6 62.4-6.6 63.05-8.6 63.05-12.15L63.05-12.15Q63.05-15.7 62.4-17.7 61.75-19.7 60.2-20.53 58.65-21.35 56-21.35ZM105.59-24.35L109.99-24.35 102.89-1.2Q102.74-0.65 102.29-0.33 101.84 0 101.24 0L101.24 0 97.39 0Q96.79 0 96.32-0.38 95.84-0.75 95.74-1.35L95.74-1.35 91.74-17.9Q91.54-18.85 91.37-19.8 91.19-20.75 90.94-21.75L90.94-21.75 90.34-21.75Q90.14-20.75 89.92-19.8 89.69-18.85 89.49-17.9L89.49-17.9 85.54-1.35Q85.39-0.75 84.94-0.38 84.49 0 83.84 0L83.84 0 80.04 0Q79.44 0 78.99-0.33 78.54-0.65 78.39-1.2L78.39-1.2 71.29-24.35 75.69-24.35 80.74-6.4Q80.99-5.5 81.19-4.58 81.39-3.65 81.54-2.75L81.54-2.75 82.19-2.75Q82.44-3.65 82.67-4.58 82.89-5.5 83.09-6.4L83.09-6.4 87.14-23Q87.24-23.6 87.67-23.98 88.09-24.35 88.74-24.35L88.74-24.35 92.59-24.35Q93.19-24.35 93.62-23.98 94.04-23.6 94.19-22.95L94.19-22.95 98.19-6.4Q98.39-5.5 98.62-4.6 98.84-3.7 99.04-2.75L99.04-2.75 99.69-2.75Q99.94-3.7 100.09-4.58 100.24-5.45 100.54-6.4L100.54-6.4 105.59-24.35ZM125.19-35.1L125.19-35.1Q127.64-35.05 130.24-34.85 132.84-34.65 135.44-34.1L135.44-34.1 135.14-30.9Q132.99-31 130.39-31.08 127.79-31.15 125.39-31.15L125.39-31.15Q123.54-31.15 122.22-31.03 120.89-30.9 120.04-30.43 119.19-29.95 118.82-28.88 118.44-27.8 118.44-25.9L118.44-25.9Q118.44-23.05 119.47-21.93 120.49-20.8 122.79-20.25L122.79-20.25 129.79-18.5Q133.79-17.55 135.27-15.18 136.74-12.8 136.74-8.8L136.74-8.8Q136.74-5.8 136.06-3.95 135.39-2.1 133.99-1.13 132.59-0.15 130.39 0.23 128.19 0.6 125.19 0.6L125.19 0.6Q123.49 0.6 120.77 0.45 118.04 0.3 114.49-0.35L114.49-0.35 114.79-3.6Q117.74-3.5 119.54-3.43 121.34-3.35 122.64-3.35 123.94-3.35 125.34-3.35L125.34-3.35Q127.99-3.35 129.52-3.75 131.04-4.15 131.67-5.35 132.29-6.55 132.29-8.9L132.29-8.9Q132.29-10.9 131.84-12 131.39-13.1 130.42-13.68 129.44-14.25 127.94-14.6L127.94-14.6 120.79-16.4Q117.04-17.35 115.52-19.7 113.99-22.05 113.99-26L113.99-26Q113.99-29 114.67-30.83 115.34-32.65 116.72-33.58 118.09-34.5 120.19-34.8 122.29-35.1 125.19-35.1ZM154.69-24.95L154.69-24.95Q157.39-24.95 159.26-24.23 161.14-23.5 162.09-21.8 163.04-20.1 163.04-17.15L163.04-17.15 163.04 0 159.69 0 159.04-5.3 158.74-5.85 158.74-17.15Q158.74-19.4 157.71-20.38 156.69-21.35 153.79-21.35L153.79-21.35Q151.89-21.35 149.01-21.15 146.14-20.95 143.34-20.7L143.34-20.7 142.94-23.85Q144.64-24.15 146.66-24.4 148.69-24.65 150.79-24.8 152.89-24.95 154.69-24.95ZM148.59-15L161.04-15 160.99-11.8 149.34-11.75Q147.59-11.7 146.89-10.83 146.19-9.95 146.19-8.4L146.19-8.4 146.19-6.85Q146.19-4.95 147.09-4.08 147.99-3.2 149.99-3.2L149.99-3.2Q151.39-3.2 153.16-3.73 154.94-4.25 156.74-5.35 158.54-6.45 160.04-8.15L160.04-8.15 160.04-5Q159.49-4.3 158.46-3.38 157.44-2.45 156.01-1.58 154.59-0.7 152.86-0.13 151.14 0.45 149.14 0.45L149.14 0.45Q146.99 0.45 145.34-0.33 143.69-1.1 142.76-2.63 141.84-4.15 141.84-6.35L141.84-6.35 141.84-9Q141.84-11.85 143.61-13.43 145.39-15 148.59-15L148.59-15ZM187.79-24.35L192.29-24.35 183.39-1.05Q183.19-0.55 182.81-0.28 182.44 0 181.89 0L181.89 0 178.04 0Q177.54 0 177.14-0.28 176.74-0.55 176.54-1.05L176.54-1.05 167.64-24.35 172.19-24.35 178.19-7.3Q178.59-6.25 178.94-5.15 179.29-4.05 179.64-3.05L179.64-3.05 180.29-3.05Q180.69-4.1 181.06-5.18 181.44-6.25 181.79-7.3L181.79-7.3 187.79-24.35ZM206.83-24.95L206.83-24.95Q212.33-24.95 214.81-22.95 217.28-20.95 217.28-17L217.28-17Q217.33-13.75 215.93-11.93 214.53-10.1 211.48-10.1L211.48-10.1 197.28-10.1 197.28-13.4 210.38-13.4Q212.03-13.4 212.53-14.53 213.03-15.65 213.03-17L213.03-17Q212.98-19.35 211.63-20.35 210.28-21.35 207.03-21.35L207.03-21.35Q204.38-21.35 202.86-20.58 201.33-19.8 200.71-17.88 200.08-15.95 200.08-12.5L200.08-12.5Q200.08-8.6 200.86-6.55 201.63-4.5 203.33-3.75 205.03-3 207.83-3L207.83-3Q209.78-3 212.11-3.18 214.43-3.35 216.28-3.6L216.28-3.6 216.73-0.75Q215.58-0.3 213.91 0 212.23 0.3 210.46 0.45 208.68 0.6 207.28 0.6L207.28 0.6Q203.08 0.6 200.53-0.68 197.98-1.95 196.81-4.78 195.63-7.6 195.63-12.25L195.63-12.25Q195.63-17.05 196.81-19.83 197.98-22.6 200.46-23.78 202.93-24.95 206.83-24.95Z" opacity="1" transform="matrix(1,0,0,1,0,0)" fill="#000000" class="wordmark-text-0" data-fill-palette-color="primary" id="text-0"></path></svg></g></svg></g></svg></g></svg></g><g transform="matrix(1,0,0,1,118.42561288797916,0)"><svg viewBox="0 0 158.66877422404167 158.66877422404167" height="158.66877422404167" width="158.66877422404167"><g><svg></svg></g><g id="icon-0"><svg viewBox="0 0 158.66877422404167 158.66877422404167" height="158.66877422404167" width="158.66877422404167"><g><path d="M0 79.334c0-43.815 35.519-79.334 79.334-79.334 43.815 0 79.334 35.519 79.335 79.334 0 43.815-35.519 79.334-79.335 79.335-43.815 0-79.334-35.519-79.334-79.335zM79.334 152.684c40.51 0 73.349-32.84 73.35-73.35 0-40.51-32.84-73.349-73.35-73.349-40.51 0-73.349 32.84-73.349 73.349 0 40.51 32.84 73.349 73.349 73.35z" data-fill-palette-color="tertiary" fill="#000000" stroke="transparent"></path></g><g transform="matrix(1,0,0,1,39.57403887273569,36.110593904156836)"><svg viewBox="0 0 79.52069647857029 86.447586415728" height="86.447586415728" width="79.52069647857029"><g><svg xmlns="http://www.w3.org/2000/svg" xmlns:xlink="http://www.w3.org/1999/xlink" version="1.1" x="0" y="0" viewBox="3.3000000000000007 0.8 57.39999999999999 62.400000000000006" enable-background="new 0 0 64 64" xml:space="preserve" height="86.447586415728" width="79.52069647857029" class="icon-cg-0" data-fill-palette-color="accent" id="cg-0"><g fill="#f56607" data-fill-palette-color="accent"><g fill="#f56607" data-fill-palette-color="accent"><rect x="12.3" y="12.3" width="32.6" height="2.7" fill="#000000" data-fill-palette-color="accent"></rect><rect x="12.3" y="21.5" width="32.6" height="2.7" fill="#000000" data-fill-palette-color="accent"></rect><path d="M45 30.7v0.5c-2.7 0.2-5.3 0.9-7.6 2.2H12.4v-2.7H45z" fill="#000000" data-fill-palette-color="accent"></path><path d="M30.9 39.8c-0.5 0.9-0.9 1.8-1.2 2.7H12.4v-2.7H30.9z" fill="#000000" data-fill-palette-color="accent"></path><path d="M29 51.7H12.4V49h16.3C28.7 49.9 28.8 50.8 29 51.7z" fill="#000000" data-fill-palette-color="accent"></path></g><path d="M53.3 35.6c-2.2-1.3-4.7-2-7.4-2-8.2 0-14.8 6.6-14.8 14.8 0 3 0.9 5.9 2.5 8.3 2.7 4 7.2 6.5 12.3 6.5 8.2 0 14.8-6.6 14.8-14.8C60.7 42.9 57.8 38.1 53.3 35.6zM51.8 53.4c-0.3 2-1.5 3.3-3.3 4.1-0.5 0.2-1.1 0.3-1.6 0.5v2.2h-2.1v-2.1c-0.7-0.1-1.4-0.2-2.1-0.3-0.9-0.2-1.7-0.5-2.5-0.9-0.2-0.1-0.2-0.2-0.1-0.4 0.2-0.6 0.4-1.2 0.6-1.8 0.2 0.1 0.3 0.2 0.5 0.3 1.3 0.7 2.8 1.1 4.3 1.1 0.6 0 1.2-0.1 1.7-0.3 2.3-0.9 2.6-3.7 0.7-5.3-0.8-0.6-1.7-1-2.6-1.4-1.2-0.5-2.3-1-3.3-1.8-2.3-1.9-2.1-5.5 0.2-7.3 0.8-0.6 1.6-1 2.5-1.2 0.1 0 0.2-0.1 0.4-0.1v-2.1H47v2c0.8 0.1 1.5 0.2 2.2 0.4 0.6 0.2 1.1 0.4 1.7 0.7 0.1 0 0.2 0.2 0.1 0.3-0.2 0.6-0.5 1.2-0.8 1.9-0.8-0.5-1.6-0.7-2.4-0.9-1-0.2-2-0.2-3 0.1-1 0.3-1.7 1-1.8 2.1-0.2 1 0.2 2 1.1 2.5 0.8 0.5 1.6 0.9 2.4 1.2 1.1 0.5 2.1 0.9 3.1 1.6C51.3 49.6 52.1 51.3 51.8 53.4z" fill="#000000" data-fill-palette-color="accent"></path><path d="M45.6 0.8H11.8c-4.7 0-8.5 3.8-8.5 8.5v45.4c0 4.7 3.8 8.5 8.5 8.5h25.3c-1.8-1-3.3-2.4-4.6-4H11.8c-2.5 0-4.5-2-4.5-4.5V9.3c0-2.5 2-4.5 4.5-4.5h33.8c2.5 0 4.5 2 4.5 4.5v22.3c1.4 0.3 2.8 0.9 4 1.5V9.3C54.1 4.6 50.2 0.8 45.6 0.8z" fill="#000000" data-fill-palette-color="accent"></path></g></svg></g></svg></g></svg></g></svg></g><g></g></svg></g><defs></defs></svg><rect width="381.3687534963988" height="247.2" fill="none" stroke="none" visibility="hidden"></rect></g></svg></g></svg>